
        <svg xmlns="http://www.w3.org/2000/svg" xmlns:xlink="http://www.w3.org/1999/xlink" version="1.1" width="3193.129850254392" 
        height="936.4672904453918" viewBox="0 0 3193.129850254392 936.4672904453918">
			<rect fill="#263353" width="3193.129850254392" height="936.4672904453918"/>
			<g transform="scale(9.656492512719575) translate(10, 10)">
				<defs id="SvgjsDefs1034"></defs><g id="SvgjsG1035" featureKey="Ez5wPW-0" transform="matrix(0.9999999152289569,0,0,0.9999999152289569,-4.999999576144784,-1.5109959487070768)" fill="#add8eb"><g xmlns="http://www.w3.org/2000/svg"><g><circle fill="none" cx="69.734" cy="37.7" r="5.161"></circle><circle fill="none" cx="42.003" cy="57.167" r="5.16"></circle><circle fill="none" cx="26.666" cy="72.159" r="5.16"></circle><circle fill="none" cx="51.84" cy="27.84" r="5.16"></circle><ellipse fill="none" cx="26.666" cy="42.504" rx="5.159" ry="5.161"></ellipse><path d="M5.585,28.425H45.54c0.296,3.217,3.007,5.745,6.3,5.745c3.49,0,6.329-2.839,6.329-6.33c0-3.49-2.839-6.329-6.329-6.329    c-3.293,0-6.003,2.528-6.3,5.744H5.585C5.262,27.255,5,27.517,5,27.84S5.262,28.425,5.585,28.425z M51.84,22.68    c2.845,0,5.16,2.315,5.16,5.16c0,2.845-2.315,5.16-5.16,5.16c-2.845,0-5.16-2.315-5.16-5.16    C46.68,24.995,48.994,22.68,51.84,22.68z"></path><path d="M42.004,63.497c3.49,0,6.33-2.839,6.33-6.329c0-3.491-2.839-6.33-6.33-6.33c-3.293,0-6.004,2.528-6.3,5.745H5.585    C5.262,56.583,5,56.844,5,57.168c0,0.323,0.262,0.584,0.585,0.584h30.118C36,60.969,38.71,63.497,42.004,63.497z M42.004,52.007    c2.845,0,5.16,2.315,5.16,5.16c0,2.845-2.315,5.16-5.16,5.16c-2.845,0-5.16-2.315-5.16-5.16    C36.843,54.322,39.158,52.007,42.004,52.007z"></path><path d="M94.415,64.318H65.202c-0.155,0-0.304,0.061-0.413,0.171l-7.086,7.084H32.965c-0.296-3.217-3.007-5.744-6.3-5.744    c-3.489,0-6.327,2.839-6.327,6.329c0,3.491,2.838,6.331,6.327,6.331c3.293,0,6.004-2.529,6.3-5.746h24.98    c0.155,0,0.304-0.062,0.413-0.171l7.086-7.085h28.971c0.323,0,0.585-0.261,0.585-0.585C95,64.58,94.739,64.318,94.415,64.318z     M26.665,77.32c-2.844,0-5.158-2.316-5.158-5.161c0-2.845,2.314-5.16,5.158-5.16c2.845,0,5.16,2.315,5.16,5.16    C31.825,75.005,29.51,77.32,26.665,77.32z"></path><path d="M94.415,54.483H65.641L53.246,42.091c-0.109-0.11-0.258-0.171-0.413-0.171H32.965c-0.296-3.218-3.007-5.747-6.3-5.747    c-3.489,0-6.327,2.84-6.327,6.332c0,3.491,2.838,6.33,6.327,6.33c3.293,0,6.004-2.528,6.3-5.745h19.626l12.394,12.392    c0.11,0.109,0.258,0.171,0.414,0.171h29.016c0.323,0,0.585-0.262,0.585-0.585C95,54.745,94.739,54.483,94.415,54.483z     M26.665,47.665c-2.844,0-5.158-2.315-5.158-5.16c0-2.846,2.314-5.162,5.158-5.162c2.845,0,5.16,2.316,5.16,5.162    C31.825,45.35,29.51,47.665,26.665,47.665z"></path><path d="M69.734,44.031c3.293,0,6.004-2.529,6.3-5.746h18.381c0.323,0,0.585-0.262,0.585-0.585c0-0.323-0.261-0.585-0.585-0.585    H76.034c-0.296-3.217-3.007-5.746-6.3-5.746c-3.49,0-6.33,2.84-6.33,6.331C63.405,41.19,66.244,44.031,69.734,44.031z     M69.734,32.539c2.845,0,5.16,2.315,5.16,5.161c0,2.846-2.315,5.161-5.16,5.161c-2.845,0-5.16-2.315-5.16-5.161    C64.574,34.854,66.889,32.539,69.734,32.539z"></path></g></g></g><g id="SvgjsG1036" featureKey="nameLeftFeature-0" transform="matrix(2.4824242424242424,0,0,2.4824242424242424,105.46666548295454,15.866667850378787)" fill="#add8eb"><path d="M10.175781 20 l-4.384766 -5.996094 l-1.035156 0 l0 5.996094 l-2.929687 0 l0 -14.111328 l2.929688 0 l0 5.546875 l0.996094 0 l4.423828 -5.546875 l3.574219 0 l-5.46875 6.748047 l5.634766 7.363281 l-3.740234 0 z M22.265625 20.195313 c-4.150391 0 -7.216797 -2.832031 -7.216797 -7.255859 c0 -4.433594 3.066406 -7.246094 7.216797 -7.246094 c4.140625 0 7.207031 2.8125 7.207031 7.246094 c0 4.423828 -3.066406 7.255859 -7.207031 7.255859 z M22.265625 17.509766 c2.431641 0 4.296875 -1.708984 4.296875 -4.570312 c0 -2.851562 -1.865234 -4.550781 -4.296875 -4.550781 s-4.296875 1.699219 -4.296875 4.550781 c0 2.861328 1.865234 4.570313 4.296875 4.570313 z M39.619141 20 l-3.671875 -6.210937 l-0.849609 0 l0 6.210938 l-2.929687 0 l0 -14.111328 l5.117188 0 c3.193359 0 4.541016 1.884766 4.541016 4.21875 c0 1.894531 -1.074219 3.125 -2.988281 3.535156 l4.248047 6.357422 l-3.466797 0 z M35.097656 8.320313 l0 3.369141 l1.728516 0 c1.5625 0 2.197266 -0.664062 2.197266 -1.679687 c0 -1.005859 -0.634766 -1.689453 -2.197266 -1.689453 l-1.728516 0 z"></path></g><g id="SvgjsG1037" featureKey="nameRightFeature-0" transform="matrix(2.585133239831697,0,0,2.585133239831697,219.78822064286027,14.297336436053646)" fill="#add8eb"><path d="M9.677734 6.074219 l0 2.080078 l-3.4375 0 l0 11.845703 l-2.324219 0 l0 -11.845703 l-3.447266 0 l0 -2.080078 l9.208984 0 z M19.912109 8.154297 l-5.410156 0 l0 3.857422 l4.785156 0 l0 2.060547 l-4.785156 0 l0 3.837891 l5.410156 0 l0 2.089844 l-7.773437 0 l0 -13.925781 l7.773438 0 l0 2.080078 z M21.523438 20 l5.429688 -7.265625 l-5.234375 -6.660156 l2.841797 0 l3.779297 4.980469 l3.769531 -4.980469 l2.841797 0 l-5.224609 6.660156 l5.429688 7.265625 l-2.96875 0 l-3.847656 -5.410156 l-3.847656 5.410156 l-2.96875 0 z"></path></g>
			</g>
		</svg>
	